Coordinates
version=1
nRows=34
nColumns=19
inDegrees=yes

Units are S.I. units (second, meters, Newtons, ...)
If the header above contains a line with 'inDegrees', this indicates whether rotational values are in degrees (yes) or radians (no).

endheader
time	pelvis_tilt	pelvis_list	pelvis_rotation	pelvis_tx	pelvis_ty	pelvis_tz	hip_flexion_r	hip_adduction_r	hip_rotation_r	knee_angle_r	knee_angle_r_beta	ankle_angle_r	hip_flexion_l	hip_adduction_l	hip_rotation_l	knee_angle_l	knee_angle_l_beta	ankle_angle_l
     11.53333333	     -1.61158919	    -10.87836391	      2.26271250	      2.36592506	      1.00230443	      1.06465823	     36.14911559	      8.68014842	    -17.47401282	     30.84032788	      0.53826526	     -1.24367105	    -15.32278205	    -10.50139042	      0.46848274	     80.48562585	      1.40473917	    -15.81986252
     11.54000000	     -1.01754500	    -11.17652077	      1.79570241	      2.36663053	      0.99740989	      1.06500885	     34.96106256	      9.22417274	    -17.43870094	     32.86845607	      0.57366278	     -0.10439593	    -14.64359736	    -10.83479190	      0.01237460	     83.90729468	      1.46445856	    -14.67976057
     11.54666667	     -1.06879634	    -11.38883122	      1.18098711	      2.36689863	      0.99163408	      1.06564745	     34.55381088	      9.72040104	    -17.13723396	     35.17960608	      0.61399996	      1.37891455	    -13.11168591	    -11.10946843	     -0.37868085	     87.41097514	      1.52560932	    -13.42665152
     11.55333333	     -0.81634680	    -11.78162866	      0.51759528	      2.36684962	      0.98626745	      1.06636905	     33.82295091	     10.51088815	    -16.68588091	     37.55917862	      0.65553133	      3.24921377	    -11.88351912	    -11.68634859	     -0.95148767	     90.73804582	      1.58367766	    -12.18920289
     11.56000000	     -1.23852260	    -12.10733649	     -0.40284833	      2.36643254	      0.98014113	      1.06750420	     33.87635157	     11.35235272	    -15.92551691	     40.16048881	      0.70093276	      5.42565739	     -9.80409485	    -12.26698372	     -1.55095693	     94.08811399	      1.64214738	    -11.04403818
     11.56666667	     -1.46908733	    -12.50839386	     -1.22691233	      2.36563369	      0.97458019	      1.06848397	     33.67491924	     12.30403705	    -15.10823336	     42.71451131	      0.74550886	      7.79900418	     -7.80331854	    -13.04749879	     -2.04940240	     97.28978787	      1.69802713	     -9.94806042
     11.57333333	     -2.00602341	    -12.78259674	     -2.10089789	      2.36432407	      0.96905727	      1.06962242	     33.76291581	     13.18323859	    -14.17109030	     45.27271552	      0.79015795	     10.37230955	     -5.26374679	    -13.74403612	     -2.33669487	    100.41166715	      1.75251420	     -9.01411631
     11.58000000	     -2.46206466	    -13.19962112	     -2.97504304	      2.36281303	      0.96412812	      1.07078228	     33.58974340	     14.27626175	    -13.16049869	     47.56228150	      0.83011841	     12.92250319	     -2.71336164	    -14.72222584	     -2.57272272	    103.33094632	      1.80346523	     -8.17696488
     11.58666667	     -3.01324356	    -13.44503771	     -3.75639501	      2.36097262	      0.95968809	      1.07180869	     33.35766936	     15.17008708	    -12.09998669	     49.63686968	      0.86632681	     15.43169200	      0.18146858	    -15.51982661	     -2.49541427	    106.06056671	      1.85110610	     -7.46275192
     11.59333333	     -3.39556764	    -13.79008086	     -4.53029634	      2.35902467	      0.95612071	      1.07282594	     32.66701129	     16.18327463	    -10.98328085	     51.28533920	      0.89509803	     17.80441373	      2.99121094	    -16.48704203	     -2.34186146	    108.49629448	      1.89361756	     -6.79701926
     11.60000000	     -3.27224394	    -13.94313773	     -5.02454837	      2.35709939	      0.95403603	      1.07333639	     31.11795310	     16.83669273	     -9.87636987	     52.46500758	      0.91568712	     20.21281923	      5.45108408	    -17.09091777	     -1.90801998	    110.51310909	      1.92881762	     -6.27426806
     11.60666667	     -4.18168252	    -13.90793996	     -5.70526080	      2.35478170	      0.95122834	      1.07421942	     30.53167850	     17.38966773	     -8.61171331	     53.38778604	      0.93179265	     22.11100097	      9.31258137	    -17.56408519	     -1.21803800	    112.44910324	      1.96260709	     -5.81098951
     11.61333333	     -3.96794755	    -13.77922833	     -6.04698873	      2.35292473	      0.95070711	      1.07448727	     28.33453251	     17.60575765	     -7.36529833	     53.70154254	      0.93726873	     24.00475298	     11.94546287	    -17.70557835	     -0.54332824	    113.74767269	      1.98527140	     -5.32361644
     11.62000000	     -4.47756191	    -13.43339307	     -6.35214263	      2.35090370	      0.94987515	      1.07471421	     26.77180368	     17.50244257	     -6.27262283	     53.68650057	      0.93700620	     25.55108319	     15.61180508	    -17.54734168	      0.40473098	    114.83688554	      2.00428176	     -4.84195139
     11.62666667	     -4.31282050	    -13.05688968	     -6.64572635	      2.34933705	      0.95072860	      1.07490357	     24.13863433	     17.31742671	     -4.93186476	     53.12169434	      0.92714847	     26.68584466	     18.35718408	    -17.25278387	      1.05059823	    115.33547230	      2.01298374	     -4.27484217
     11.63333333	     -4.27094454	    -12.52986875	     -6.83333445	      2.34811515	      0.95190500	      1.07503670	     21.45973666	     16.83580010	     -3.75616832	     52.19821797	      0.91103077	     27.78384902	     21.22811077	    -16.75025166	      1.68444368	    115.45307239	      2.01503624	     -3.64100429
     11.64000000	     -4.32259319	    -11.88912100	     -6.95831183	      2.34713363	      0.95354483	      1.07516439	     18.75666036	     16.15870210	     -2.65409862	     50.93889256	      0.88905139	     28.45103976	     24.13816314	    -16.03630850	      2.27493038	    115.17832871	      2.01024106	     -2.94822510
     11.64666667	     -3.87772165	    -10.91208645	     -6.39469492	      2.34647545	      0.95609793	      1.07441787	     15.51992391	     14.74596661	     -2.30304967	     49.41645082	      0.86247977	     29.05723082	     26.56649296	    -14.49237103	      3.12737041	    114.47317933	      1.99793388	     -2.25374681
     11.65333333	     -3.70737000	    -10.06485967	     -6.18571177	      2.34617544	      0.95891032	      1.07437389	     12.40441246	     13.68160599	     -1.56633100	     47.55895668	      0.83006038	     28.97647526	     28.96905402	    -13.29867613	      3.61131015	    113.38993457	      1.97902770	     -1.45327277
     11.66000000	     -3.40702619	     -9.11047960	     -5.83966529	      2.34633141	      0.96221854	      1.07420614	      9.09316931	     12.40201734	     -1.13199646	     45.46656568	      0.79354127	     28.43174663	     31.02809844	    -11.91942162	      3.95714384	    111.92993210	      1.95354585	     -0.63604852
     11.66666667	     -3.17546317	     -8.16288329	     -5.53620073	      2.34679423	      0.96576520	      1.07428408	      5.81043886	     11.18890935	     -0.67367471	     43.17755708	      0.75359053	     27.41700382	     32.94610696	    -10.61257213	      4.14386217	    110.14662903	      1.92242134	      0.21157824
     11.67333333	     -3.89618467	     -7.31786639	     -5.56414740	      2.34720509	      0.96833664	      1.07486913	      3.65129411	     10.27094861	      0.04806875	     40.97907999	      0.71521987	     25.86392855	     35.77450086	     -9.63021838	      4.21169551	    108.19665414	      1.88838785	      0.96827813
     11.68000000	     -3.22302362	     -6.20580200	     -4.91850553	      2.34862442	      0.97295659	      1.07476604	     -0.15268636	      8.76630298	     -0.17503128	     38.29191433	      0.66831998	     23.77498388	     36.77295302	     -8.01850788	      4.23870742	    105.71641764	      1.84509956	      1.75780227
     11.68666667	     -3.41470177	     -5.24110261	     -4.63022915	      2.35006706	      0.97666007	      1.07518045	     -2.91003703	      7.59933950	     -0.11255100	     35.73122728	      0.62362756	     21.08317056	     38.56236491	     -6.85809832	      4.09057553	    103.08902814	      1.79924296	      2.41679159
     11.69333333	     -3.75732051	     -4.29307401	     -4.28852038	      2.35177413	      0.98030708	      1.07556536	     -5.42793603	      6.46461146	     -0.30509671	     33.16166688	      0.57878027	     17.80887250	     40.35399902	     -5.74457438	      3.89326820	    100.22301368	      1.74922158	      2.95083787
     11.70000000	     -4.09897488	     -3.37403563	     -4.00353592	      2.35379625	      0.98407458	      1.07613067	     -7.88334265	      5.37239150	     -0.59674822	     30.56559533	      0.53347028	     13.98909143	     41.93108459	     -4.81272109	      3.50624591	     97.10492089	      1.69480059	      3.43689908
     11.70666667	     -4.46765342	     -2.48247656	     -3.77246767	      2.35604585	      0.98791179	      1.07682821	    -10.20599314	      4.31663031	     -1.00364550	     28.00724697	      0.48881867	      9.67362205	     43.34040706	     -4.05723860	      2.93284294	     93.75079538	      1.63626006	      3.84157033
     11.71333333	     -5.04661485	     -1.67461495	     -3.41089659	      2.35845389	      0.99142878	      1.07736832	    -12.18270321	      3.39780947	     -1.73636493	     25.53314493	      0.44563745	      4.99067306	     44.85977105	     -3.38171349	      2.37583261	     90.22160151	      1.57466400	      4.08545823
     11.72000000	     -5.41962073	     -0.84338236	     -3.25622432	      2.36104320	      0.99526068	      1.07822470	    -14.24795150	      2.41014303	     -2.45510203	     23.15035368	      0.40404989	      0.01801860	     45.90709245	     -2.98912818	      1.38542072	     86.43944246	      1.50865287	      4.42589660
     11.72666667	     -5.91957662	     -0.07035849	     -3.01713950	      2.36361797	      0.99881637	      1.07889563	    -16.00909950	      1.51543025	     -3.44471551	     20.96385183	      0.36588824	     -5.04142327	     46.95870667	     -2.66014173	      0.31344522	     82.48979505	      1.43971852	      4.69096442
     11.73333333	     -6.34686805	      0.72092305	     -2.87410953	      2.36621556	      1.00240258	      1.07956592	    -17.70357233	      0.59258840	     -4.41334826	     18.94104379	      0.33058358	     -9.97976211	     47.73250986	     -2.48801631	     -1.10754385	     78.33860081	      1.36726652	      4.91776555
     11.74000000	     -6.75963130	      1.51908878	     -2.77952006	      2.36871107	      1.00584841	      1.08006061	    -19.21233728	     -0.36101912	     -5.47819909	     17.23419500	      0.30079345	    -14.61477458	     48.31572721	     -2.36848705	     -2.78388965	     74.01829474	      1.29186295	      5.14498333
     11.74666667	     -7.14275511	      2.34299166	     -2.66395178	      2.37102207	      1.00911656	      1.08017302	    -20.53798536	     -1.36275956	     -6.69948964	     15.92262524	      0.27790224	    -18.78985451	     48.70629629	     -2.18300414	     -4.66078230	     69.54148350	      1.21372785	      5.34936787
     11.75333333	     -7.43103669	      3.17989404	     -2.63678644	      2.37313955	      1.01229634	      1.07993545	    -21.75251019	     -2.44442189	     -7.88529186	     15.03049847	      0.26233169	    -22.36548978	     48.82320285	     -1.95949630	     -6.75150917	     64.92822912	      1.13321138	      5.49731429
